<?xml version="1.0" encoding="UTF-8"?>
<svg version="1.1" xmlns="http://www.w3.org/2000/svg" width="16" height="16">
<path d="M0 0 C5.33333333 0 10.66666667 0 16 0 C15.690625 0.5775 15.38125 1.155 15.0625 1.75 C13.49870655 5.0615626 12.9887209 7.43604513 13.0625 11.125 C13 14 13 14 11 16 C8 16.25 8 16.25 5 16 C3 14 3 14 2.91015625 11.94140625 C3.01156345 10.35789379 3.11572198 8.77455507 3.22265625 7.19140625 C2.94353119 4.44422799 2.0048682 3.79548249 0 2 C0 1.34 0 0.68 0 0 Z " fill="#F5A32E" transform="translate(0,0)"/>
<path d="M0 0 C5.33333333 0 10.66666667 0 16 0 C14.79618552 2.49361571 13.54571278 4.68143083 12 7 C8.91760097 7.39772891 6.95116722 7.64155809 4 7 C1.5 4.625 1.5 4.625 0 2 C0 1.34 0 0.68 0 0 Z " fill="#55ACEA" transform="translate(0,0)"/>
<path d="M0 0 C0.94875 0.04125 1.8975 0.0825 2.875 0.125 C1.67118552 2.61861571 0.42071278 4.80643083 -1.125 7.125 C-1.785 7.125 -2.445 7.125 -3.125 7.125 C-3.785 5.475 -4.445 3.825 -5.125 2.125 C-3.125 0.125 -3.125 0.125 0 0 Z " fill="#3B85C3" transform="translate(13.125,-0.125)"/>
</svg>
